<svg width="2837" height="2837" viewBox="0 0 2837 2837" fill="none" xmlns="http://www.w3.org/2000/svg">
<mask id="path-1-inside-1_2_51" fill="white">
<path fill-rule="evenodd" clip-rule="evenodd" d="M1960.82 559.195C1694.44 462.124 1124.39 456.827 760.58 1012.97L1380.79 1305.99C1425.78 1204.37 1527.5 1133.47 1645.78 1133.47C1805.76 1133.47 1935.44 1263.16 1935.44 1423.13C1935.44 1583.11 1805.76 1712.79 1645.78 1712.79C1485.81 1712.79 1356.12 1583.11 1356.12 1423.13C1356.12 1403.98 1357.98 1385.25 1361.53 1367.14L1191.14 1329.1L760.58 1309.59C640.082 1360.57 716.865 1635.6 802.872 1820.69C888.879 2005.78 1033.57 2157.31 1214.49 2251.76C1395.42 2346.22 1602.46 2378.32 1803.49 2343.08C2004.52 2307.84 2188.3 2207.24 2326.31 2056.89C2464.33 1906.53 2548.86 1714.83 2566.79 1511.52C2584.72 1308.21 2535.05 1104.67 2425.48 932.482C2315.92 760.29 2152.58 629.074 1960.82 559.195Z"/>
</mask>
<path fill-rule="evenodd" clip-rule="evenodd" d="M1960.82 559.195C1694.44 462.124 1124.39 456.827 760.58 1012.97L1380.79 1305.99C1425.78 1204.37 1527.5 1133.47 1645.78 1133.47C1805.76 1133.47 1935.44 1263.16 1935.44 1423.13C1935.44 1583.11 1805.76 1712.79 1645.78 1712.79C1485.81 1712.79 1356.12 1583.11 1356.12 1423.13C1356.12 1403.98 1357.98 1385.25 1361.53 1367.14L1191.14 1329.1L760.58 1309.59C640.082 1360.57 716.865 1635.6 802.872 1820.69C888.879 2005.78 1033.57 2157.31 1214.49 2251.76C1395.42 2346.22 1602.46 2378.32 1803.49 2343.08C2004.52 2307.84 2188.3 2207.24 2326.31 2056.89C2464.33 1906.53 2548.86 1714.83 2566.79 1511.52C2584.72 1308.21 2535.05 1104.67 2425.48 932.482C2315.92 760.29 2152.58 629.074 1960.82 559.195Z" fill="#FBCE8A"/>
<path d="M760.58 1012.97L745.067 1002.83C742.132 1007.31 741.283 1012.85 742.739 1018.01C744.195 1023.17 747.814 1027.45 752.661 1029.74L760.58 1012.97ZM1960.82 559.195L1954.48 576.613L1960.82 559.195ZM1380.79 1305.99L1372.87 1322.75C1377.38 1324.88 1382.57 1325.1 1387.25 1323.36C1391.94 1321.62 1395.72 1318.06 1397.74 1313.49L1380.79 1305.99ZM1361.53 1367.14L1379.72 1370.7C1381.65 1360.84 1375.38 1351.24 1365.57 1349.05L1361.53 1367.14ZM1191.14 1329.1L1195.18 1311C1194.13 1310.77 1193.06 1310.63 1191.98 1310.58L1191.14 1329.1ZM760.58 1309.59L761.42 1291.07C758.658 1290.94 755.903 1291.44 753.357 1292.51L760.58 1309.59ZM802.872 1820.69L786.06 1828.5L802.872 1820.69ZM1214.49 2251.76L1223.07 2235.33L1214.49 2251.76ZM1803.49 2343.08L1800.29 2324.82H1800.29L1803.49 2343.08ZM2326.31 2056.89L2312.66 2044.35L2326.31 2056.89ZM2425.48 932.482L2409.84 942.434L2425.48 932.482ZM776.094 1023.12C1133.99 476.016 1693.93 481.667 1954.48 576.613L1967.17 541.777C1694.96 442.581 1114.79 437.637 745.067 1002.83L776.094 1023.12ZM1388.71 1289.22L768.499 996.213L752.661 1029.74L1372.87 1322.75L1388.71 1289.22ZM1397.74 1313.49C1439.86 1218.34 1535.1 1152.01 1645.78 1152.01V1114.93C1519.9 1114.93 1411.69 1190.4 1363.84 1298.48L1397.74 1313.49ZM1645.78 1152.01C1795.52 1152.01 1916.9 1273.4 1916.9 1423.13H1953.98C1953.98 1252.92 1815.99 1114.93 1645.78 1114.93V1152.01ZM1916.9 1423.13C1916.9 1572.87 1795.52 1694.25 1645.78 1694.25V1731.33C1815.99 1731.33 1953.98 1593.35 1953.98 1423.13H1916.9ZM1645.78 1694.25C1496.04 1694.25 1374.66 1572.87 1374.66 1423.13H1337.58C1337.58 1593.35 1475.57 1731.33 1645.78 1731.33V1694.25ZM1374.66 1423.13C1374.66 1405.18 1376.4 1387.65 1379.72 1370.7L1343.34 1363.58C1339.56 1382.86 1337.58 1402.77 1337.58 1423.13H1374.66ZM1187.1 1347.19L1357.49 1385.23L1365.57 1349.05L1195.18 1311L1187.1 1347.19ZM759.741 1328.1L1190.3 1347.62L1191.98 1310.58L761.42 1291.07L759.741 1328.1ZM819.684 1812.88C777.113 1721.27 737.145 1608 722.616 1512.07C715.334 1464 714.675 1421.72 722.308 1389.16C729.85 1356.98 744.848 1336.37 767.804 1326.66L753.357 1292.51C716.064 1308.29 695.473 1341.18 686.21 1380.69C677.037 1419.83 678.355 1467.43 685.958 1517.62C701.197 1618.24 742.624 1735.03 786.06 1828.5L819.684 1812.88ZM1223.07 2235.33C1045.77 2142.76 903.971 1994.27 819.684 1812.88L786.06 1828.5C873.788 2017.3 1021.37 2171.85 1205.91 2268.2L1223.07 2235.33ZM1800.29 2324.82C1603.28 2359.35 1400.38 2327.89 1223.07 2235.33L1205.91 2268.2C1390.46 2364.54 1601.64 2397.28 1806.69 2361.34L1800.29 2324.82ZM2312.66 2044.35C2177.4 2191.7 1997.3 2290.29 1800.29 2324.82L1806.69 2361.34C2011.74 2325.4 2199.2 2222.79 2339.97 2069.42L2312.66 2044.35ZM2548.32 1509.89C2530.75 1709.13 2447.91 1897 2312.66 2044.35L2339.97 2069.42C2480.75 1916.06 2566.97 1720.52 2585.26 1513.15L2548.32 1509.89ZM2409.84 942.434C2517.22 1111.18 2565.9 1310.65 2548.32 1509.89L2585.26 1513.15C2603.55 1305.78 2552.88 1098.17 2441.13 922.53L2409.84 942.434ZM1954.48 576.613C2142.4 645.094 2302.47 773.686 2409.84 942.434L2441.13 922.53C2329.37 746.894 2162.77 613.054 1967.17 541.777L1954.48 576.613Z" fill="black" mask="url(#path-1-inside-1_2_51)"/>
<path d="M1295.87 581.96C1168.26 634.56 1241.42 817.978 1369.03 765.378C1241.42 817.978 1321.2 1021.55 1448.81 968.946C1333.95 1016.29 1390.88 1191.41 1499.79 1163.6" stroke="black" stroke-width="18.5382"/>
<path d="M1532.24 524.028C1396.57 549.448 1438.35 738.637 1574.02 713.217C1438.35 738.637 1477.52 947.708 1613.19 922.288C1491.07 945.168 1523.6 1123.29 1609.58 1128.08" stroke="black" stroke-width="18.5382"/>
<path d="M1819.41 531.846C1682.06 518.138 1665.67 712.308 1803.02 726.016C1665.67 712.308 1644.55 923.965 1781.89 937.674C1658.27 925.335 1639.46 1105.42 1720.63 1134.17" stroke="black" stroke-width="18.5382"/>
<path d="M352.922 792.875C284.9 820.084 232.423 864.711 294.99 971.305C371.461 899.47 422.443 906.422 487.324 906.422C530.832 905.752 569.818 909.023 603.006 916.897C616.909 857.717 695.697 824.604 804.609 792.875C780.509 772.483 654.878 716.391 556.839 714.087C556.839 714.087 387.682 778.971 352.922 792.875Z" fill="#FFAE12"/>
<path d="M679.656 1237.79C673.983 1318.13 744.36 1423.18 744.36 1423.18L793.023 1485.7L869.493 1409.27L952.915 1485.7L1029.39 1409.27L1115.12 1485.7L1193.91 1409.27L1284.29 1485.7L1355.2 1423.18C1355.2 1423.18 1394.19 1161.67 1355.2 932.647C1342.91 860.449 1322.87 791.478 1291.42 734.943C1285.1 723.589 1279.26 712.768 1273.66 702.404C1240.83 641.593 1216.5 596.521 1154.7 551.878C1086.26 502.435 1035.2 481.271 950.779 480.042C871.476 478.888 826.587 501.566 756.126 537.974C663.855 585.652 556.839 714.087 556.839 714.087C654.878 716.391 780.509 772.483 804.609 792.875C695.697 824.604 616.909 857.717 603.006 916.897C684.713 936.281 731.279 983.563 723.684 1068.63C717.368 1093.74 710.425 1113.72 703.922 1132.45C692.708 1164.74 682.799 1193.26 679.656 1237.79Z" fill="white"/>
<path d="M556.839 714.088C556.839 714.088 387.682 778.971 352.922 792.875C284.9 820.084 232.423 864.711 294.99 971.305C371.461 899.47 422.443 906.422 487.324 906.422C530.833 905.752 569.818 909.023 603.006 916.897M556.839 714.088C556.839 714.088 663.855 585.652 756.126 537.974C826.587 501.566 871.476 478.888 950.779 480.042C1035.2 481.271 1086.26 502.435 1154.7 551.878C1216.5 596.521 1240.83 641.593 1273.66 702.404C1279.26 712.768 1285.1 723.589 1291.42 734.943C1322.87 791.478 1342.91 860.449 1355.2 932.647C1394.19 1161.67 1355.2 1423.18 1355.2 1423.18L1284.29 1485.7L1193.91 1409.27L1115.12 1485.7L1029.39 1409.27L952.915 1485.7L869.493 1409.27L793.023 1485.7L744.36 1423.18C744.36 1423.18 673.983 1318.13 679.656 1237.79C682.799 1193.26 692.708 1164.74 703.922 1132.45C710.425 1113.72 717.368 1093.74 723.684 1068.63C731.279 983.563 684.713 936.281 603.006 916.897M556.839 714.088C654.878 716.391 780.509 772.483 804.609 792.875C695.697 824.604 616.909 857.717 603.006 916.897" stroke="black" stroke-width="23.1728"/>
<path d="M918.671 567.258C898.354 560.821 882.254 582.048 877.223 602.757C872.764 621.113 874.425 641.479 891.806 648.876C911.682 657.335 930.295 636.305 935.864 615.434C941.014 596.133 937.714 573.292 918.671 567.258Z" fill="black"/>
</svg>